<?xml version="1.0" encoding="utf-8" standalone="no"?>
<!DOCTYPE svg PUBLIC "-//W3C//DTD SVG 1.1//EN"
  "http://www.w3.org/Graphics/SVG/1.1/DTD/svg11.dtd">
<svg xmlns:xlink="http://www.w3.org/1999/xlink" width="720pt" height="504pt" viewBox="0 0 720 504" xmlns="http://www.w3.org/2000/svg" version="1.1">
 <metadata>
  <rdf:RDF xmlns:dc="http://purl.org/dc/elements/1.1/" xmlns:cc="http://creativecommons.org/ns#" xmlns:rdf="http://www.w3.org/1999/02/22-rdf-syntax-ns#">
   <cc:Work>
    <dc:type rdf:resource="http://purl.org/dc/dcmitype/StillImage"/>
    <dc:date>2026-01-19T15:23:50.016295</dc:date>
    <dc:format>image/svg+xml</dc:format>
    <dc:creator>
     <cc:Agent>
      <dc:title>Matplotlib v3.8.4, https://matplotlib.org/</dc:title>
     </cc:Agent>
    </dc:creator>
   </cc:Work>
  </rdf:RDF>
 </metadata>
 <defs>
  <style type="text/css">*{stroke-linejoin: round; stroke-linecap: butt}</style>
 </defs>
 <g id="figure_1">
  <g id="patch_1">
   <path d="M 0 504 
L 720 504 
L 720 0 
L 0 0 
z
" style="fill: #ffffff"/>
  </g>
  <g id="axes_1">
   <g id="patch_2">
    <path d="M 90 448.56 
L 648 448.56 
L 648 60.48 
L 90 60.48 
z
" style="fill: #ffffff"/>
   </g>
   <g id="patch_3">
    <path d="M 115.363636 448.56 
L 119.429951 448.56 
L 119.429951 310.071464 
L 115.363636 310.071464 
z
" clip-path="url(#p8535841ab9)" style="fill: #1f77b4"/>
   </g>
   <g id="patch_4">
    <path d="M 140.778102 448.56 
L 144.844416 448.56 
L 144.844416 390.663462 
L 140.778102 390.663462 
z
" clip-path="url(#p8535841ab9)" style="fill: #1f77b4"/>
   </g>
   <g id="patch_5">
    <path d="M 145.860995 448.56 
L 149.927309 448.56 
L 149.927309 338.794394 
L 145.860995 338.794394 
z
" clip-path="url(#p8535841ab9)" style="fill: #1f77b4"/>
   </g>
   <g id="patch_6">
    <path d="M 150.943888 448.56 
L 155.010202 448.56 
L 155.010202 288.635705 
L 150.943888 288.635705 
z
" clip-path="url(#p8535841ab9)" style="fill: #1f77b4"/>
   </g>
   <g id="patch_7">
    <path d="M 161.109674 448.56 
L 165.175988 448.56 
L 165.175988 220.078661 
L 161.109674 220.078661 
z
" clip-path="url(#p8535841ab9)" style="fill: #1f77b4"/>
   </g>
   <g id="patch_8">
    <path d="M 166.192567 448.56 
L 170.258881 448.56 
L 170.258881 284.524394 
L 166.192567 284.524394 
z
" clip-path="url(#p8535841ab9)" style="fill: #1f77b4"/>
   </g>
   <g id="patch_9">
    <path d="M 176.358353 448.56 
L 180.424668 448.56 
L 180.424668 339.01506 
L 176.358353 339.01506 
z
" clip-path="url(#p8535841ab9)" style="fill: #1f77b4"/>
   </g>
   <g id="patch_10">
    <path d="M 191.607032 448.56 
L 195.673347 448.56 
L 195.673347 375.629181 
L 191.607032 375.629181 
z
" clip-path="url(#p8535841ab9)" style="fill: #1f77b4"/>
   </g>
   <g id="patch_11">
    <path d="M 196.689925 448.56 
L 200.75624 448.56 
L 200.75624 312.328315 
L 196.689925 312.328315 
z
" clip-path="url(#p8535841ab9)" style="fill: #1f77b4"/>
   </g>
   <g id="patch_12">
    <path d="M 201.772818 448.56 
L 205.839133 448.56 
L 205.839133 243.792039 
L 201.772818 243.792039 
z
" clip-path="url(#p8535841ab9)" style="fill: #1f77b4"/>
   </g>
   <g id="patch_13">
    <path d="M 206.855711 448.56 
L 210.922026 448.56 
L 210.922026 289.575483 
L 206.855711 289.575483 
z
" clip-path="url(#p8535841ab9)" style="fill: #1f77b4"/>
   </g>
   <g id="patch_14">
    <path d="M 222.104391 448.56 
L 226.170705 448.56 
L 226.170705 315.13813 
L 222.104391 315.13813 
z
" clip-path="url(#p8535841ab9)" style="fill: #1f77b4"/>
   </g>
   <g id="patch_15">
    <path d="M 227.187284 448.56 
L 231.253598 448.56 
L 231.253598 296.786503 
L 227.187284 296.786503 
z
" clip-path="url(#p8535841ab9)" style="fill: #1f77b4"/>
   </g>
   <g id="patch_16">
    <path d="M 232.270177 448.56 
L 236.336491 448.56 
L 236.336491 238.1577 
L 232.270177 238.1577 
z
" clip-path="url(#p8535841ab9)" style="fill: #1f77b4"/>
   </g>
   <g id="patch_17">
    <path d="M 252.601749 448.56 
L 256.668063 448.56 
L 256.668063 424.768912 
L 252.601749 424.768912 
z
" clip-path="url(#p8535841ab9)" style="fill: #1f77b4"/>
   </g>
   <g id="patch_18">
    <path d="M 262.767535 448.56 
L 266.83385 448.56 
L 266.83385 60.48 
L 262.767535 60.48 
z
" clip-path="url(#p8535841ab9)" style="fill: #1f77b4"/>
   </g>
   <g id="patch_19">
    <path d="M 272.933321 448.56 
L 276.999636 448.56 
L 276.999636 205.125291 
L 272.933321 205.125291 
z
" clip-path="url(#p8535841ab9)" style="fill: #1f77b4"/>
   </g>
   <g id="patch_20">
    <path d="M 283.099107 448.56 
L 287.165422 448.56 
L 287.165422 448.56 
L 283.099107 448.56 
z
" clip-path="url(#p8535841ab9)" style="fill: #1f77b4"/>
   </g>
   <g id="patch_21">
    <path d="M 288.182 448.56 
L 292.248315 448.56 
L 292.248315 435.515522 
L 288.182 435.515522 
z
" clip-path="url(#p8535841ab9)" style="fill: #1f77b4"/>
   </g>
   <g id="patch_22">
    <path d="M 293.264893 448.56 
L 297.331208 448.56 
L 297.331208 396.835794 
L 293.264893 396.835794 
z
" clip-path="url(#p8535841ab9)" style="fill: #1f77b4"/>
   </g>
   <g id="patch_23">
    <path d="M 298.347786 448.56 
L 302.414101 448.56 
L 302.414101 60.48 
L 298.347786 60.48 
z
" clip-path="url(#p8535841ab9)" style="fill: #1f77b4"/>
   </g>
   <g id="patch_24">
    <path d="M 303.43068 448.56 
L 307.496994 448.56 
L 307.496994 173.279288 
L 303.43068 173.279288 
z
" clip-path="url(#p8535841ab9)" style="fill: #1f77b4"/>
   </g>
   <g id="patch_25">
    <path d="M 308.513573 448.56 
L 312.579887 448.56 
L 312.579887 307.932302 
L 308.513573 307.932302 
z
" clip-path="url(#p8535841ab9)" style="fill: #1f77b4"/>
   </g>
   <g id="patch_26">
    <path d="M 318.679359 448.56 
L 322.745673 448.56 
L 322.745673 321.69667 
L 318.679359 321.69667 
z
" clip-path="url(#p8535841ab9)" style="fill: #1f77b4"/>
   </g>
   <g id="patch_27">
    <path d="M 323.762252 448.56 
L 327.828566 448.56 
L 327.828566 302.638913 
L 323.762252 302.638913 
z
" clip-path="url(#p8535841ab9)" style="fill: #1f77b4"/>
   </g>
   <g id="patch_28">
    <path d="M 328.845145 448.56 
L 332.911459 448.56 
L 332.911459 242.216224 
L 328.845145 242.216224 
z
" clip-path="url(#p8535841ab9)" style="fill: #1f77b4"/>
   </g>
   <g id="patch_29">
    <path d="M 333.928038 448.56 
L 337.994352 448.56 
L 337.994352 270.52984 
L 333.928038 270.52984 
z
" clip-path="url(#p8535841ab9)" style="fill: #1f77b4"/>
   </g>
   <g id="patch_30">
    <path d="M 339.010931 448.56 
L 343.077245 448.56 
L 343.077245 230.807357 
L 339.010931 230.807357 
z
" clip-path="url(#p8535841ab9)" style="fill: #1f77b4"/>
   </g>
   <g id="patch_31">
    <path d="M 344.093824 448.56 
L 348.160138 448.56 
L 348.160138 333.266494 
L 344.093824 333.266494 
z
" clip-path="url(#p8535841ab9)" style="fill: #1f77b4"/>
   </g>
   <g id="patch_32">
    <path d="M 349.176717 448.56 
L 353.243032 448.56 
L 353.243032 216.238206 
L 349.176717 216.238206 
z
" clip-path="url(#p8535841ab9)" style="fill: #1f77b4"/>
   </g>
   <g id="patch_33">
    <path d="M 359.342503 448.56 
L 363.408818 448.56 
L 363.408818 308.128738 
L 359.342503 308.128738 
z
" clip-path="url(#p8535841ab9)" style="fill: #1f77b4"/>
   </g>
   <g id="patch_34">
    <path d="M 364.425396 448.56 
L 368.491711 448.56 
L 368.491711 422.7329 
L 364.425396 422.7329 
z
" clip-path="url(#p8535841ab9)" style="fill: #1f77b4"/>
   </g>
   <g id="patch_35">
    <path d="M 374.591182 448.56 
L 378.657497 448.56 
L 378.657497 311.992557 
L 374.591182 311.992557 
z
" clip-path="url(#p8535841ab9)" style="fill: #1f77b4"/>
   </g>
   <g id="patch_36">
    <path d="M 400.005648 448.56 
L 404.071962 448.56 
L 404.071962 387.327251 
L 400.005648 387.327251 
z
" clip-path="url(#p8535841ab9)" style="fill: #1f77b4"/>
   </g>
   <g id="patch_37">
    <path d="M 410.171434 448.56 
L 414.237748 448.56 
L 414.237748 242.421314 
L 410.171434 242.421314 
z
" clip-path="url(#p8535841ab9)" style="fill: #1f77b4"/>
   </g>
   <g id="patch_38">
    <path d="M 415.254327 448.56 
L 419.320641 448.56 
L 419.320641 295.411451 
L 415.254327 295.411451 
z
" clip-path="url(#p8535841ab9)" style="fill: #1f77b4"/>
   </g>
   <g id="patch_39">
    <path d="M 425.420113 448.56 
L 429.486427 448.56 
L 429.486427 309.505521 
L 425.420113 309.505521 
z
" clip-path="url(#p8535841ab9)" style="fill: #1f77b4"/>
   </g>
   <g id="patch_40">
    <path d="M 435.585899 448.56 
L 439.652214 448.56 
L 439.652214 334.895096 
L 435.585899 334.895096 
z
" clip-path="url(#p8535841ab9)" style="fill: #1f77b4"/>
   </g>
   <g id="patch_41">
    <path d="M 440.668792 448.56 
L 444.735107 448.56 
L 444.735107 371.367298 
L 440.668792 371.367298 
z
" clip-path="url(#p8535841ab9)" style="fill: #1f77b4"/>
   </g>
   <g id="patch_42">
    <path d="M 450.834578 448.56 
L 454.900893 448.56 
L 454.900893 336.283128 
L 450.834578 336.283128 
z
" clip-path="url(#p8535841ab9)" style="fill: #1f77b4"/>
   </g>
   <g id="patch_43">
    <path d="M 461.000364 448.56 
L 465.066679 448.56 
L 465.066679 192.433965 
L 461.000364 192.433965 
z
" clip-path="url(#p8535841ab9)" style="fill: #1f77b4"/>
   </g>
   <g id="patch_44">
    <path d="M 476.249044 448.56 
L 480.315358 448.56 
L 480.315358 309.574749 
L 476.249044 309.574749 
z
" clip-path="url(#p8535841ab9)" style="fill: #1f77b4"/>
   </g>
   <g id="patch_45">
    <path d="M 481.331937 448.56 
L 485.398251 448.56 
L 485.398251 299.747755 
L 481.331937 299.747755 
z
" clip-path="url(#p8535841ab9)" style="fill: #1f77b4"/>
   </g>
   <g id="patch_46">
    <path d="M 496.580616 448.56 
L 500.64693 448.56 
L 500.64693 162.706356 
L 496.580616 162.706356 
z
" clip-path="url(#p8535841ab9)" style="fill: #1f77b4"/>
   </g>
   <g id="patch_47">
    <path d="M 506.746402 448.56 
L 510.812716 448.56 
L 510.812716 60.48 
L 506.746402 60.48 
z
" clip-path="url(#p8535841ab9)" style="fill: #1f77b4"/>
   </g>
   <g id="patch_48">
    <path d="M 527.077974 448.56 
L 531.144289 448.56 
L 531.144289 217.47134 
L 527.077974 217.47134 
z
" clip-path="url(#p8535841ab9)" style="fill: #1f77b4"/>
   </g>
   <g id="patch_49">
    <path d="M 557.575332 448.56 
L 561.641647 448.56 
L 561.641647 198.742418 
L 557.575332 198.742418 
z
" clip-path="url(#p8535841ab9)" style="fill: #1f77b4"/>
   </g>
   <g id="patch_50">
    <path d="M 567.741119 448.56 
L 571.807433 448.56 
L 571.807433 200.63755 
L 567.741119 200.63755 
z
" clip-path="url(#p8535841ab9)" style="fill: #1f77b4"/>
   </g>
   <g id="patch_51">
    <path d="M 577.906905 448.56 
L 581.973219 448.56 
L 581.973219 233.982352 
L 577.906905 233.982352 
z
" clip-path="url(#p8535841ab9)" style="fill: #1f77b4"/>
   </g>
   <g id="patch_52">
    <path d="M 582.989798 448.56 
L 587.056112 448.56 
L 587.056112 170.697062 
L 582.989798 170.697062 
z
" clip-path="url(#p8535841ab9)" style="fill: #1f77b4"/>
   </g>
   <g id="patch_53">
    <path d="M 593.155584 448.56 
L 597.221898 448.56 
L 597.221898 149.082175 
L 593.155584 149.082175 
z
" clip-path="url(#p8535841ab9)" style="fill: #1f77b4"/>
   </g>
   <g id="patch_54">
    <path d="M 603.32137 448.56 
L 607.387684 448.56 
L 607.387684 155.468509 
L 603.32137 155.468509 
z
" clip-path="url(#p8535841ab9)" style="fill: #1f77b4"/>
   </g>
   <g id="patch_55">
    <path d="M 618.570049 448.56 
L 622.636364 448.56 
L 622.636364 163.72315 
L 618.570049 163.72315 
z
" clip-path="url(#p8535841ab9)" style="fill: #1f77b4"/>
   </g>
   <g id="matplotlib.axis_1">
    <g id="xtick_1">
     <g id="line2d_1">
      <defs>
       <path id="m5dc9e98a9c" d="M 0 0 
L 0 3.5 
" style="stroke: #000000; stroke-width: 0.8"/>
      </defs>
      <g>
       <use xlink:href="#m5dc9e98a9c" x="112.313901" y="448.56" style="stroke: #000000; stroke-width: 0.8"/>
      </g>
     </g>
     <g id="text_1">
      <!-- 0 -->
      <g transform="translate(109.132651 463.158437) scale(0.1 -0.1)">
       <defs>
        <path id="DejaVuSans-30" d="M 2034 4250 
Q 1547 4250 1301 3770 
Q 1056 3291 1056 2328 
Q 1056 1369 1301 889 
Q 1547 409 2034 409 
Q 2525 409 2770 889 
Q 3016 1369 3016 2328 
Q 3016 3291 2770 3770 
Q 2525 4250 2034 4250 
z
M 2034 4750 
Q 2819 4750 3233 4129 
Q 3647 3509 3647 2328 
Q 3647 1150 3233 529 
Q 2819 -91 2034 -91 
Q 1250 -91 836 529 
Q 422 1150 422 2328 
Q 422 3509 836 4129 
Q 1250 4750 2034 4750 
z
" transform="scale(0.015625)"/>
       </defs>
       <use xlink:href="#DejaVuSans-30"/>
      </g>
     </g>
    </g>
    <g id="xtick_2">
     <g id="line2d_2">
      <g>
       <use xlink:href="#m5dc9e98a9c" x="213.971762" y="448.56" style="stroke: #000000; stroke-width: 0.8"/>
      </g>
     </g>
     <g id="text_2">
      <!-- 20 -->
      <g transform="translate(207.609262 463.158437) scale(0.1 -0.1)">
       <defs>
        <path id="DejaVuSans-32" d="M 1228 531 
L 3431 531 
L 3431 0 
L 469 0 
L 469 531 
Q 828 903 1448 1529 
Q 2069 2156 2228 2338 
Q 2531 2678 2651 2914 
Q 2772 3150 2772 3378 
Q 2772 3750 2511 3984 
Q 2250 4219 1831 4219 
Q 1534 4219 1204 4116 
Q 875 4013 500 3803 
L 500 4441 
Q 881 4594 1212 4672 
Q 1544 4750 1819 4750 
Q 2544 4750 2975 4387 
Q 3406 4025 3406 3419 
Q 3406 3131 3298 2873 
Q 3191 2616 2906 2266 
Q 2828 2175 2409 1742 
Q 1991 1309 1228 531 
z
" transform="scale(0.015625)"/>
       </defs>
       <use xlink:href="#DejaVuSans-32"/>
       <use xlink:href="#DejaVuSans-30" x="63.623047"/>
      </g>
     </g>
    </g>
    <g id="xtick_3">
     <g id="line2d_3">
      <g>
       <use xlink:href="#m5dc9e98a9c" x="315.629623" y="448.56" style="stroke: #000000; stroke-width: 0.8"/>
      </g>
     </g>
     <g id="text_3">
      <!-- 40 -->
      <g transform="translate(309.267123 463.158437) scale(0.1 -0.1)">
       <defs>
        <path id="DejaVuSans-34" d="M 2419 4116 
L 825 1625 
L 2419 1625 
L 2419 4116 
z
M 2253 4666 
L 3047 4666 
L 3047 1625 
L 3713 1625 
L 3713 1100 
L 3047 1100 
L 3047 0 
L 2419 0 
L 2419 1100 
L 313 1100 
L 313 1709 
L 2253 4666 
z
" transform="scale(0.015625)"/>
       </defs>
       <use xlink:href="#DejaVuSans-34"/>
       <use xlink:href="#DejaVuSans-30" x="63.623047"/>
      </g>
     </g>
    </g>
    <g id="xtick_4">
     <g id="line2d_4">
      <g>
       <use xlink:href="#m5dc9e98a9c" x="417.287484" y="448.56" style="stroke: #000000; stroke-width: 0.8"/>
      </g>
     </g>
     <g id="text_4">
      <!-- 60 -->
      <g transform="translate(410.924984 463.158437) scale(0.1 -0.1)">
       <defs>
        <path id="DejaVuSans-36" d="M 2113 2584 
Q 1688 2584 1439 2293 
Q 1191 2003 1191 1497 
Q 1191 994 1439 701 
Q 1688 409 2113 409 
Q 2538 409 2786 701 
Q 3034 994 3034 1497 
Q 3034 2003 2786 2293 
Q 2538 2584 2113 2584 
z
M 3366 4563 
L 3366 3988 
Q 3128 4100 2886 4159 
Q 2644 4219 2406 4219 
Q 1781 4219 1451 3797 
Q 1122 3375 1075 2522 
Q 1259 2794 1537 2939 
Q 1816 3084 2150 3084 
Q 2853 3084 3261 2657 
Q 3669 2231 3669 1497 
Q 3669 778 3244 343 
Q 2819 -91 2113 -91 
Q 1303 -91 875 529 
Q 447 1150 447 2328 
Q 447 3434 972 4092 
Q 1497 4750 2381 4750 
Q 2619 4750 2861 4703 
Q 3103 4656 3366 4563 
z
" transform="scale(0.015625)"/>
       </defs>
       <use xlink:href="#DejaVuSans-36"/>
       <use xlink:href="#DejaVuSans-30" x="63.623047"/>
      </g>
     </g>
    </g>
    <g id="xtick_5">
     <g id="line2d_5">
      <g>
       <use xlink:href="#m5dc9e98a9c" x="518.945345" y="448.56" style="stroke: #000000; stroke-width: 0.8"/>
      </g>
     </g>
     <g id="text_5">
      <!-- 80 -->
      <g transform="translate(512.582845 463.158437) scale(0.1 -0.1)">
       <defs>
        <path id="DejaVuSans-38" d="M 2034 2216 
Q 1584 2216 1326 1975 
Q 1069 1734 1069 1313 
Q 1069 891 1326 650 
Q 1584 409 2034 409 
Q 2484 409 2743 651 
Q 3003 894 3003 1313 
Q 3003 1734 2745 1975 
Q 2488 2216 2034 2216 
z
M 1403 2484 
Q 997 2584 770 2862 
Q 544 3141 544 3541 
Q 544 4100 942 4425 
Q 1341 4750 2034 4750 
Q 2731 4750 3128 4425 
Q 3525 4100 3525 3541 
Q 3525 3141 3298 2862 
Q 3072 2584 2669 2484 
Q 3125 2378 3379 2068 
Q 3634 1759 3634 1313 
Q 3634 634 3220 271 
Q 2806 -91 2034 -91 
Q 1263 -91 848 271 
Q 434 634 434 1313 
Q 434 1759 690 2068 
Q 947 2378 1403 2484 
z
M 1172 3481 
Q 1172 3119 1398 2916 
Q 1625 2713 2034 2713 
Q 2441 2713 2670 2916 
Q 2900 3119 2900 3481 
Q 2900 3844 2670 4047 
Q 2441 4250 2034 4250 
Q 1625 4250 1398 4047 
Q 1172 3844 1172 3481 
z
" transform="scale(0.015625)"/>
       </defs>
       <use xlink:href="#DejaVuSans-38"/>
       <use xlink:href="#DejaVuSans-30" x="63.623047"/>
      </g>
     </g>
    </g>
    <g id="xtick_6">
     <g id="line2d_6">
      <g>
       <use xlink:href="#m5dc9e98a9c" x="620.603206" y="448.56" style="stroke: #000000; stroke-width: 0.8"/>
      </g>
     </g>
     <g id="text_6">
      <!-- 100 -->
      <g transform="translate(611.059456 463.158437) scale(0.1 -0.1)">
       <defs>
        <path id="DejaVuSans-31" d="M 794 531 
L 1825 531 
L 1825 4091 
L 703 3866 
L 703 4441 
L 1819 4666 
L 2450 4666 
L 2450 531 
L 3481 531 
L 3481 0 
L 794 0 
L 794 531 
z
" transform="scale(0.015625)"/>
       </defs>
       <use xlink:href="#DejaVuSans-31"/>
       <use xlink:href="#DejaVuSans-30" x="63.623047"/>
       <use xlink:href="#DejaVuSans-30" x="127.246094"/>
      </g>
     </g>
    </g>
    <g id="text_7">
     <!-- coordinates -->
     <g transform="translate(328.017187 479.875938) scale(0.14 -0.14)">
      <defs>
       <path id="DejaVuSans-63" d="M 3122 3366 
L 3122 2828 
Q 2878 2963 2633 3030 
Q 2388 3097 2138 3097 
Q 1578 3097 1268 2742 
Q 959 2388 959 1747 
Q 959 1106 1268 751 
Q 1578 397 2138 397 
Q 2388 397 2633 464 
Q 2878 531 3122 666 
L 3122 134 
Q 2881 22 2623 -34 
Q 2366 -91 2075 -91 
Q 1284 -91 818 406 
Q 353 903 353 1747 
Q 353 2603 823 3093 
Q 1294 3584 2113 3584 
Q 2378 3584 2631 3529 
Q 2884 3475 3122 3366 
z
" transform="scale(0.015625)"/>
       <path id="DejaVuSans-6f" d="M 1959 3097 
Q 1497 3097 1228 2736 
Q 959 2375 959 1747 
Q 959 1119 1226 758 
Q 1494 397 1959 397 
Q 2419 397 2687 759 
Q 2956 1122 2956 1747 
Q 2956 2369 2687 2733 
Q 2419 3097 1959 3097 
z
M 1959 3584 
Q 2709 3584 3137 3096 
Q 3566 2609 3566 1747 
Q 3566 888 3137 398 
Q 2709 -91 1959 -91 
Q 1206 -91 779 398 
Q 353 888 353 1747 
Q 353 2609 779 3096 
Q 1206 3584 1959 3584 
z
" transform="scale(0.015625)"/>
       <path id="DejaVuSans-72" d="M 2631 2963 
Q 2534 3019 2420 3045 
Q 2306 3072 2169 3072 
Q 1681 3072 1420 2755 
Q 1159 2438 1159 1844 
L 1159 0 
L 581 0 
L 581 3500 
L 1159 3500 
L 1159 2956 
Q 1341 3275 1631 3429 
Q 1922 3584 2338 3584 
Q 2397 3584 2469 3576 
Q 2541 3569 2628 3553 
L 2631 2963 
z
" transform="scale(0.015625)"/>
       <path id="DejaVuSans-64" d="M 2906 2969 
L 2906 4863 
L 3481 4863 
L 3481 0 
L 2906 0 
L 2906 525 
Q 2725 213 2448 61 
Q 2172 -91 1784 -91 
Q 1150 -91 751 415 
Q 353 922 353 1747 
Q 353 2572 751 3078 
Q 1150 3584 1784 3584 
Q 2172 3584 2448 3432 
Q 2725 3281 2906 2969 
z
M 947 1747 
Q 947 1113 1208 752 
Q 1469 391 1925 391 
Q 2381 391 2643 752 
Q 2906 1113 2906 1747 
Q 2906 2381 2643 2742 
Q 2381 3103 1925 3103 
Q 1469 3103 1208 2742 
Q 947 2381 947 1747 
z
" transform="scale(0.015625)"/>
       <path id="DejaVuSans-69" d="M 603 3500 
L 1178 3500 
L 1178 0 
L 603 0 
L 603 3500 
z
M 603 4863 
L 1178 4863 
L 1178 4134 
L 603 4134 
L 603 4863 
z
" transform="scale(0.015625)"/>
       <path id="DejaVuSans-6e" d="M 3513 2113 
L 3513 0 
L 2938 0 
L 2938 2094 
Q 2938 2591 2744 2837 
Q 2550 3084 2163 3084 
Q 1697 3084 1428 2787 
Q 1159 2491 1159 1978 
L 1159 0 
L 581 0 
L 581 3500 
L 1159 3500 
L 1159 2956 
Q 1366 3272 1645 3428 
Q 1925 3584 2291 3584 
Q 2894 3584 3203 3211 
Q 3513 2838 3513 2113 
z
" transform="scale(0.015625)"/>
       <path id="DejaVuSans-61" d="M 2194 1759 
Q 1497 1759 1228 1600 
Q 959 1441 959 1056 
Q 959 750 1161 570 
Q 1363 391 1709 391 
Q 2188 391 2477 730 
Q 2766 1069 2766 1631 
L 2766 1759 
L 2194 1759 
z
M 3341 1997 
L 3341 0 
L 2766 0 
L 2766 531 
Q 2569 213 2275 61 
Q 1981 -91 1556 -91 
Q 1019 -91 701 211 
Q 384 513 384 1019 
Q 384 1609 779 1909 
Q 1175 2209 1959 2209 
L 2766 2209 
L 2766 2266 
Q 2766 2663 2505 2880 
Q 2244 3097 1772 3097 
Q 1472 3097 1187 3025 
Q 903 2953 641 2809 
L 641 3341 
Q 956 3463 1253 3523 
Q 1550 3584 1831 3584 
Q 2591 3584 2966 3190 
Q 3341 2797 3341 1997 
z
" transform="scale(0.015625)"/>
       <path id="DejaVuSans-74" d="M 1172 4494 
L 1172 3500 
L 2356 3500 
L 2356 3053 
L 1172 3053 
L 1172 1153 
Q 1172 725 1289 603 
Q 1406 481 1766 481 
L 2356 481 
L 2356 0 
L 1766 0 
Q 1100 0 847 248 
Q 594 497 594 1153 
L 594 3053 
L 172 3053 
L 172 3500 
L 594 3500 
L 594 4494 
L 1172 4494 
z
" transform="scale(0.015625)"/>
       <path id="DejaVuSans-65" d="M 3597 1894 
L 3597 1613 
L 953 1613 
Q 991 1019 1311 708 
Q 1631 397 2203 397 
Q 2534 397 2845 478 
Q 3156 559 3463 722 
L 3463 178 
Q 3153 47 2828 -22 
Q 2503 -91 2169 -91 
Q 1331 -91 842 396 
Q 353 884 353 1716 
Q 353 2575 817 3079 
Q 1281 3584 2069 3584 
Q 2775 3584 3186 3129 
Q 3597 2675 3597 1894 
z
M 3022 2063 
Q 3016 2534 2758 2815 
Q 2500 3097 2075 3097 
Q 1594 3097 1305 2825 
Q 1016 2553 972 2059 
L 3022 2063 
z
" transform="scale(0.015625)"/>
       <path id="DejaVuSans-73" d="M 2834 3397 
L 2834 2853 
Q 2591 2978 2328 3040 
Q 2066 3103 1784 3103 
Q 1356 3103 1142 2972 
Q 928 2841 928 2578 
Q 928 2378 1081 2264 
Q 1234 2150 1697 2047 
L 1894 2003 
Q 2506 1872 2764 1633 
Q 3022 1394 3022 966 
Q 3022 478 2636 193 
Q 2250 -91 1575 -91 
Q 1294 -91 989 -36 
Q 684 19 347 128 
L 347 722 
Q 666 556 975 473 
Q 1284 391 1588 391 
Q 1994 391 2212 530 
Q 2431 669 2431 922 
Q 2431 1156 2273 1281 
Q 2116 1406 1581 1522 
L 1381 1569 
Q 847 1681 609 1914 
Q 372 2147 372 2553 
Q 372 3047 722 3315 
Q 1072 3584 1716 3584 
Q 2034 3584 2315 3537 
Q 2597 3491 2834 3397 
z
" transform="scale(0.015625)"/>
      </defs>
      <use xlink:href="#DejaVuSans-63"/>
      <use xlink:href="#DejaVuSans-6f" x="54.980469"/>
      <use xlink:href="#DejaVuSans-6f" x="116.162109"/>
      <use xlink:href="#DejaVuSans-72" x="177.34375"/>
      <use xlink:href="#DejaVuSans-64" x="216.707031"/>
      <use xlink:href="#DejaVuSans-69" x="280.183594"/>
      <use xlink:href="#DejaVuSans-6e" x="307.966797"/>
      <use xlink:href="#DejaVuSans-61" x="371.345703"/>
      <use xlink:href="#DejaVuSans-74" x="432.625"/>
      <use xlink:href="#DejaVuSans-65" x="471.833984"/>
      <use xlink:href="#DejaVuSans-73" x="533.357422"/>
     </g>
    </g>
   </g>
   <g id="matplotlib.axis_2">
    <g id="ytick_1">
     <g id="line2d_7">
      <defs>
       <path id="m369899f2f5" d="M 0 0 
L -3.5 0 
" style="stroke: #000000; stroke-width: 0.8"/>
      </defs>
      <g>
       <use xlink:href="#m369899f2f5" x="90" y="448.56" style="stroke: #000000; stroke-width: 0.8"/>
      </g>
     </g>
     <g id="text_8">
      <!-- 0.0 -->
      <g transform="translate(67.096875 452.359219) scale(0.1 -0.1)">
       <defs>
        <path id="DejaVuSans-2e" d="M 684 794 
L 1344 794 
L 1344 0 
L 684 0 
L 684 794 
z
" transform="scale(0.015625)"/>
       </defs>
       <use xlink:href="#DejaVuSans-30"/>
       <use xlink:href="#DejaVuSans-2e" x="63.623047"/>
       <use xlink:href="#DejaVuSans-30" x="95.410156"/>
      </g>
     </g>
    </g>
    <g id="ytick_2">
     <g id="line2d_8">
      <g>
       <use xlink:href="#m369899f2f5" x="90" y="370.944" style="stroke: #000000; stroke-width: 0.8"/>
      </g>
     </g>
     <g id="text_9">
      <!-- 0.2 -->
      <g transform="translate(67.096875 374.743219) scale(0.1 -0.1)">
       <use xlink:href="#DejaVuSans-30"/>
       <use xlink:href="#DejaVuSans-2e" x="63.623047"/>
       <use xlink:href="#DejaVuSans-32" x="95.410156"/>
      </g>
     </g>
    </g>
    <g id="ytick_3">
     <g id="line2d_9">
      <g>
       <use xlink:href="#m369899f2f5" x="90" y="293.328" style="stroke: #000000; stroke-width: 0.8"/>
      </g>
     </g>
     <g id="text_10">
      <!-- 0.4 -->
      <g transform="translate(67.096875 297.127219) scale(0.1 -0.1)">
       <use xlink:href="#DejaVuSans-30"/>
       <use xlink:href="#DejaVuSans-2e" x="63.623047"/>
       <use xlink:href="#DejaVuSans-34" x="95.410156"/>
      </g>
     </g>
    </g>
    <g id="ytick_4">
     <g id="line2d_10">
      <g>
       <use xlink:href="#m369899f2f5" x="90" y="215.712" style="stroke: #000000; stroke-width: 0.8"/>
      </g>
     </g>
     <g id="text_11">
      <!-- 0.6 -->
      <g transform="translate(67.096875 219.511219) scale(0.1 -0.1)">
       <use xlink:href="#DejaVuSans-30"/>
       <use xlink:href="#DejaVuSans-2e" x="63.623047"/>
       <use xlink:href="#DejaVuSans-36" x="95.410156"/>
      </g>
     </g>
    </g>
    <g id="ytick_5">
     <g id="line2d_11">
      <g>
       <use xlink:href="#m369899f2f5" x="90" y="138.096" style="stroke: #000000; stroke-width: 0.8"/>
      </g>
     </g>
     <g id="text_12">
      <!-- 0.8 -->
      <g transform="translate(67.096875 141.895219) scale(0.1 -0.1)">
       <use xlink:href="#DejaVuSans-30"/>
       <use xlink:href="#DejaVuSans-2e" x="63.623047"/>
       <use xlink:href="#DejaVuSans-38" x="95.410156"/>
      </g>
     </g>
    </g>
    <g id="ytick_6">
     <g id="line2d_12">
      <g>
       <use xlink:href="#m369899f2f5" x="90" y="60.48" style="stroke: #000000; stroke-width: 0.8"/>
      </g>
     </g>
     <g id="text_13">
      <!-- 1.0 -->
      <g transform="translate(67.096875 64.279219) scale(0.1 -0.1)">
       <use xlink:href="#DejaVuSans-31"/>
       <use xlink:href="#DejaVuSans-2e" x="63.623047"/>
       <use xlink:href="#DejaVuSans-30" x="95.410156"/>
      </g>
     </g>
    </g>
    <g id="text_14">
     <!-- DMS signal -->
     <g transform="translate(60.185312 293.324063) rotate(-90) scale(0.14 -0.14)">
      <defs>
       <path id="DejaVuSans-44" d="M 1259 4147 
L 1259 519 
L 2022 519 
Q 2988 519 3436 956 
Q 3884 1394 3884 2338 
Q 3884 3275 3436 3711 
Q 2988 4147 2022 4147 
L 1259 4147 
z
M 628 4666 
L 1925 4666 
Q 3281 4666 3915 4102 
Q 4550 3538 4550 2338 
Q 4550 1131 3912 565 
Q 3275 0 1925 0 
L 628 0 
L 628 4666 
z
" transform="scale(0.015625)"/>
       <path id="DejaVuSans-4d" d="M 628 4666 
L 1569 4666 
L 2759 1491 
L 3956 4666 
L 4897 4666 
L 4897 0 
L 4281 0 
L 4281 4097 
L 3078 897 
L 2444 897 
L 1241 4097 
L 1241 0 
L 628 0 
L 628 4666 
z
" transform="scale(0.015625)"/>
       <path id="DejaVuSans-53" d="M 3425 4513 
L 3425 3897 
Q 3066 4069 2747 4153 
Q 2428 4238 2131 4238 
Q 1616 4238 1336 4038 
Q 1056 3838 1056 3469 
Q 1056 3159 1242 3001 
Q 1428 2844 1947 2747 
L 2328 2669 
Q 3034 2534 3370 2195 
Q 3706 1856 3706 1288 
Q 3706 609 3251 259 
Q 2797 -91 1919 -91 
Q 1588 -91 1214 -16 
Q 841 59 441 206 
L 441 856 
Q 825 641 1194 531 
Q 1563 422 1919 422 
Q 2459 422 2753 634 
Q 3047 847 3047 1241 
Q 3047 1584 2836 1778 
Q 2625 1972 2144 2069 
L 1759 2144 
Q 1053 2284 737 2584 
Q 422 2884 422 3419 
Q 422 4038 858 4394 
Q 1294 4750 2059 4750 
Q 2388 4750 2728 4690 
Q 3069 4631 3425 4513 
z
" transform="scale(0.015625)"/>
       <path id="DejaVuSans-20" transform="scale(0.015625)"/>
       <path id="DejaVuSans-67" d="M 2906 1791 
Q 2906 2416 2648 2759 
Q 2391 3103 1925 3103 
Q 1463 3103 1205 2759 
Q 947 2416 947 1791 
Q 947 1169 1205 825 
Q 1463 481 1925 481 
Q 2391 481 2648 825 
Q 2906 1169 2906 1791 
z
M 3481 434 
Q 3481 -459 3084 -895 
Q 2688 -1331 1869 -1331 
Q 1566 -1331 1297 -1286 
Q 1028 -1241 775 -1147 
L 775 -588 
Q 1028 -725 1275 -790 
Q 1522 -856 1778 -856 
Q 2344 -856 2625 -561 
Q 2906 -266 2906 331 
L 2906 616 
Q 2728 306 2450 153 
Q 2172 0 1784 0 
Q 1141 0 747 490 
Q 353 981 353 1791 
Q 353 2603 747 3093 
Q 1141 3584 1784 3584 
Q 2172 3584 2450 3431 
Q 2728 3278 2906 2969 
L 2906 3500 
L 3481 3500 
L 3481 434 
z
" transform="scale(0.015625)"/>
       <path id="DejaVuSans-6c" d="M 603 4863 
L 1178 4863 
L 1178 0 
L 603 0 
L 603 4863 
z
" transform="scale(0.015625)"/>
      </defs>
      <use xlink:href="#DejaVuSans-44"/>
      <use xlink:href="#DejaVuSans-4d" x="77.001953"/>
      <use xlink:href="#DejaVuSans-53" x="163.28125"/>
      <use xlink:href="#DejaVuSans-20" x="226.757812"/>
      <use xlink:href="#DejaVuSans-73" x="258.544922"/>
      <use xlink:href="#DejaVuSans-69" x="310.644531"/>
      <use xlink:href="#DejaVuSans-67" x="338.427734"/>
      <use xlink:href="#DejaVuSans-6e" x="401.904297"/>
      <use xlink:href="#DejaVuSans-61" x="465.283203"/>
      <use xlink:href="#DejaVuSans-6c" x="526.5625"/>
     </g>
    </g>
   </g>
   <g id="patch_56">
    <path d="M 90 448.56 
L 90 60.48 
" style="fill: none; stroke: #000000; stroke-width: 0.8; stroke-linejoin: miter; stroke-linecap: square"/>
   </g>
   <g id="patch_57">
    <path d="M 90 448.56 
L 648 448.56 
" style="fill: none; stroke: #000000; stroke-width: 0.8; stroke-linejoin: miter; stroke-linecap: square"/>
   </g>
   <g id="text_15">
    <!-- toml_file -->
    <g transform="translate(330.49125 54.48) scale(0.18 -0.18)">
     <defs>
      <path id="DejaVuSans-6d" d="M 3328 2828 
Q 3544 3216 3844 3400 
Q 4144 3584 4550 3584 
Q 5097 3584 5394 3201 
Q 5691 2819 5691 2113 
L 5691 0 
L 5113 0 
L 5113 2094 
Q 5113 2597 4934 2840 
Q 4756 3084 4391 3084 
Q 3944 3084 3684 2787 
Q 3425 2491 3425 1978 
L 3425 0 
L 2847 0 
L 2847 2094 
Q 2847 2600 2669 2842 
Q 2491 3084 2119 3084 
Q 1678 3084 1418 2786 
Q 1159 2488 1159 1978 
L 1159 0 
L 581 0 
L 581 3500 
L 1159 3500 
L 1159 2956 
Q 1356 3278 1631 3431 
Q 1906 3584 2284 3584 
Q 2666 3584 2933 3390 
Q 3200 3197 3328 2828 
z
" transform="scale(0.015625)"/>
      <path id="DejaVuSans-5f" d="M 3263 -1063 
L 3263 -1509 
L -63 -1509 
L -63 -1063 
L 3263 -1063 
z
" transform="scale(0.015625)"/>
      <path id="DejaVuSans-66" d="M 2375 4863 
L 2375 4384 
L 1825 4384 
Q 1516 4384 1395 4259 
Q 1275 4134 1275 3809 
L 1275 3500 
L 2222 3500 
L 2222 3053 
L 1275 3053 
L 1275 0 
L 697 0 
L 697 3053 
L 147 3053 
L 147 3500 
L 697 3500 
L 697 3744 
Q 697 4328 969 4595 
Q 1241 4863 1831 4863 
L 2375 4863 
z
" transform="scale(0.015625)"/>
     </defs>
     <use xlink:href="#DejaVuSans-74"/>
     <use xlink:href="#DejaVuSans-6f" x="39.208984"/>
     <use xlink:href="#DejaVuSans-6d" x="100.390625"/>
     <use xlink:href="#DejaVuSans-6c" x="197.802734"/>
     <use xlink:href="#DejaVuSans-5f" x="225.585938"/>
     <use xlink:href="#DejaVuSans-66" x="275.585938"/>
     <use xlink:href="#DejaVuSans-69" x="310.791016"/>
     <use xlink:href="#DejaVuSans-6c" x="338.574219"/>
     <use xlink:href="#DejaVuSans-65" x="366.357422"/>
    </g>
   </g>
  </g>
 </g>
 <defs>
  <clipPath id="p8535841ab9">
   <rect x="90" y="60.48" width="558" height="388.08"/>
  </clipPath>
 </defs>
</svg>
